<svg width="50" height="50" viewBox="0 0 50 50" fill="none" xmlns="http://www.w3.org/2000/svg">
<path d="M50 25C50 38.8074 38.8074 50 25 50C11.1926 50 0 38.8074 0 25C0 11.1926 11.1926 0 25 0C38.8074 0 50 11.1926 50 25Z" fill="white"/>
<path d="M29.0309 49.6746C28.8227 49.7085 28.6136 49.7398 28.4038 49.7684C28.6136 49.7398 28.8227 49.7085 29.0309 49.6746Z" fill="#FDCE4B"/>
<path d="M29.5311 49.5891C29.4315 49.6074 29.332 49.6242 29.2324 49.6414C29.332 49.6242 29.4315 49.6074 29.5311 49.5891Z" fill="#FDCE4B"/>
<path d="M27.8454 49.8379C27.6017 49.8654 27.3564 49.8898 27.1104 49.9104C27.3564 49.8898 27.6017 49.8654 27.8454 49.8379Z" fill="#FDCE4B"/>
<path d="M28.3256 49.7792C28.2085 49.7948 28.0906 49.8093 27.9731 49.823C28.0906 49.8093 28.2085 49.7948 28.3256 49.7792Z" fill="#FDCE4B"/>
<path d="M30.2117 49.4541C30.124 49.4728 30.0359 49.4915 29.9478 49.5094C30.0359 49.4915 30.124 49.4728 30.2117 49.4541Z" fill="#FDCE4B"/>
<path d="M31.9008 49.0345C31.8299 49.0548 31.7589 49.0738 31.688 49.0937C31.7589 49.0738 31.8299 49.0548 31.9008 49.0345Z" fill="#FDCE4B"/>
<path d="M31.3899 49.1741C31.3128 49.1943 31.2354 49.2149 31.158 49.2343C31.2354 49.2149 31.3128 49.1947 31.3899 49.1741Z" fill="#FDCE4B"/>
<path d="M30.7218 49.3412C30.6401 49.3603 30.5577 49.3782 30.4753 49.3965C30.5577 49.3782 30.6401 49.3603 30.7218 49.3412Z" fill="#FDCE4B"/>
<path d="M27.1022 49.9111C26.9706 49.9222 26.839 49.9321 26.707 49.9409C26.839 49.9321 26.9706 49.9222 27.1022 49.9111Z" fill="#FDCE4B"/>
<path d="M50 25C50 11.195 38.805 0 25 0C11.195 0 0 11.195 0 25C0 38.805 11.195 50 25 50C25.1469 50 25.293 49.9969 25.4395 49.9943V30.5328H20.0684V24.2733H25.4395V19.6671C25.4395 14.325 28.7006 11.4174 33.466 11.4174C35.7479 11.4174 37.7094 11.5875 38.2812 11.6634V17.2466H34.9953C32.4028 17.2466 31.9008 18.4788 31.9008 20.2866V24.2733H38.0997L37.2917 30.5328H31.9008V49.0341C42.3504 46.0384 50 36.4113 50 25Z" fill="#FDCE4B"/>
<path d="M26.6517 49.9443C26.3915 49.9611 26.1302 49.9745 25.8682 49.9832C26.1302 49.9745 26.3915 49.9611 26.6517 49.9443Z" fill="#FDCE4B"/>
<path d="M25.855 49.984C25.7169 49.9886 25.5784 49.992 25.4399 49.9943C25.5784 49.992 25.7169 49.9886 25.855 49.984Z" fill="#FDCE4B"/>
</svg>
