<svg id="Capa_1" enable-background="new 0 0 512.002 512.002" height="512" viewBox="0 0 512.002 512.002" width="512" xmlns="http://www.w3.org/2000/svg"><g><circle fill="#FDCE4B" cx="256.002" cy="192.5" r="57.5"/><path fill="#FDCE4B" d="m428.862 108.352-238.347 316.649 65.488 87.002 153.496-203.923c22.637-30.075 35.962-65.245 38.535-101.707 2.364-33.497-4.277-67.335-19.172-98.021z"/><path fill="#FDCE4B" d="m249.72 105.228c2.075-.148 4.169-.228 6.282-.228 42.037 0 77.241 29.799 85.609 69.381l70.725-93.96c-14.099-19.875-31.744-36.917-52.075-50.09-12.384-8.024-25.656-14.517-39.557-19.406z"/><path fill="#FDCE4B" d="m262.281 279.773c-2.074.148-4.167.227-6.279.227-42.039 0-77.243-29.801-85.609-69.385l-70.588 93.778c.887 1.236 1.784 2.467 2.702 3.686l69.234 91.979z"/><path fill="#FDCE4B" d="m195.111 127.892 94.157-125.09c-10.882-1.853-22.004-2.802-33.266-2.802-37.582 0-73.634 10.488-104.259 30.331-14.898 9.653-28.347 21.391-40.028 34.788z"/><path fill="#FDCE4B" d="m177.069 151.86-83.283-62.689c-3.51 5.558-6.756 11.309-9.715 17.239-15.564 31.194-22.515 65.761-20.102 99.962 1.722 24.385 8.258 48.188 19.166 70.28z"/></g></svg>