<svg width="50" height="50" viewBox="0 0 50 50" fill="none" xmlns="http://www.w3.org/2000/svg">
<path d="M46 25C46 36.5982 36.5982 46 25 46C13.4018 46 4 36.5982 4 25C4 13.4018 13.4018 4 25 4C36.5982 4 46 13.4018 46 25Z" fill="white"/>
<path d="M29.7852 25C29.7852 27.6428 27.6428 29.7852 25 29.7852C22.3572 29.7852 20.2148 27.6428 20.2148 25C20.2148 22.3572 22.3572 20.2148 25 20.2148C27.6428 20.2148 29.7852 22.3572 29.7852 25Z" fill="#FDCE4B"/>
<path d="M36.1909 16.5337C35.9608 15.9104 35.5939 15.3462 35.117 14.8831C34.6539 14.4062 34.0901 14.0393 33.4664 13.8092C32.9606 13.6128 32.2007 13.379 30.8011 13.3152C29.287 13.2462 28.8331 13.2313 25.0001 13.2313C21.1667 13.2313 20.7127 13.2458 19.1991 13.3149C17.7994 13.379 17.0392 13.6128 16.5337 13.8092C15.91 14.0393 15.3458 14.4062 14.8831 14.8831C14.4063 15.3462 14.0393 15.91 13.8089 16.5337C13.6124 17.0395 13.3786 17.7998 13.3149 19.1994C13.2458 20.7131 13.231 21.167 13.231 25.0004C13.231 28.8334 13.2458 29.2874 13.3149 30.8014C13.3786 32.201 13.6124 32.9609 13.8089 33.4668C14.0393 34.0905 14.4059 34.6543 14.8827 35.1174C15.3458 35.5942 15.9096 35.9612 16.5333 36.1912C17.0392 36.3881 17.7994 36.6219 19.1991 36.6856C20.7127 36.7546 21.1663 36.7691 24.9997 36.7691C28.8335 36.7691 29.2874 36.7546 30.8007 36.6856C32.2003 36.6219 32.9606 36.3881 33.4664 36.1912C34.7184 35.7083 35.7079 34.7187 36.1909 33.4668C36.3873 32.9609 36.6212 32.201 36.6852 30.8014C36.7543 29.2874 36.7688 28.8334 36.7688 25.0004C36.7688 21.167 36.7543 20.7131 36.6852 19.1994C36.6215 17.7998 36.3877 17.0395 36.1909 16.5337ZM25.0001 32.3716C20.9286 32.3716 17.6282 29.0715 17.6282 25C17.6282 20.9286 20.9286 17.6285 25.0001 17.6285C29.0711 17.6285 32.3716 20.9286 32.3716 25C32.3716 29.0715 29.0711 32.3716 25.0001 32.3716ZM32.663 19.0598C31.7116 19.0598 30.9403 18.2885 30.9403 17.3371C30.9403 16.3857 31.7116 15.6144 32.663 15.6144C33.6144 15.6144 34.3857 16.3857 34.3857 17.3371C34.3854 18.2885 33.6144 19.0598 32.663 19.0598Z" fill="#FDCE4B"/>
<path d="M25 0C11.195 0 0 11.195 0 25C0 38.805 11.195 50 25 50C38.805 50 50 38.805 50 25C50 11.195 38.805 0 25 0ZM39.2689 30.9185C39.1994 32.4467 38.9565 33.49 38.6017 34.4032C37.8559 36.3316 36.3316 37.8559 34.4032 38.6017C33.4904 38.9565 32.4467 39.1991 30.9189 39.2689C29.388 39.3387 28.899 39.3555 25.0004 39.3555C21.1014 39.3555 20.6127 39.3387 19.0815 39.2689C17.5537 39.1991 16.51 38.9565 15.5972 38.6017C14.6389 38.2412 13.7714 37.6762 13.0543 36.9457C12.3241 36.2289 11.7592 35.3611 11.3987 34.4032C11.0439 33.4904 10.8009 32.4467 10.7315 30.9189C10.6609 29.3877 10.6445 28.8986 10.6445 25C10.6445 21.1014 10.6609 20.6123 10.7311 19.0815C10.8006 17.5533 11.0432 16.51 11.3979 15.5968C11.7584 14.6389 12.3238 13.7711 13.0543 13.0543C13.7711 12.3238 14.6389 11.7588 15.5968 11.3983C16.51 11.0435 17.5533 10.8009 19.0815 10.7311C20.6123 10.6613 21.1014 10.6445 25 10.6445C28.8986 10.6445 29.3877 10.6613 30.9185 10.7315C32.4467 10.8009 33.49 11.0435 34.4032 11.3979C35.3611 11.7584 36.2289 12.3238 36.9461 13.0543C37.6762 13.7714 38.2416 14.6389 38.6017 15.5968C38.9568 16.51 39.1994 17.5533 39.2693 19.0815C39.3391 20.6123 39.3555 21.1014 39.3555 25C39.3555 28.8986 39.3391 29.3877 39.2689 30.9185Z" fill="#FDCE4B"/>
</svg>
