<svg width="50" height="50" viewBox="0 0 50 50" fill="none" xmlns="http://www.w3.org/2000/svg">
<path d="M46 25C46 36.5982 36.5982 46 25 46C13.4018 46 4 36.5982 4 25C4 13.4018 13.4018 4 25 4C36.5982 4 46 13.4018 46 25Z" fill="white"/>
<path d="M25 0C11.195 0 0 11.195 0 25C0 38.805 11.195 50 25 50C38.805 50 50 38.805 50 25C50 11.195 38.805 0 25 0ZM25.5299 39.5557C25.5295 39.5557 25.5302 39.5557 25.5299 39.5557H25.5238C23.0194 39.5546 20.5585 38.9267 18.3731 37.735L10.4412 39.8151L12.5641 32.0637C11.2545 29.7955 10.5656 27.2221 10.5667 24.5857C10.5701 16.3383 17.2825 9.62868 25.5299 9.62868C29.5322 9.6302 33.2893 11.1881 36.1141 14.0152C38.9393 16.8427 40.4942 20.6009 40.4926 24.5975C40.4892 32.8453 33.7761 39.5557 25.5299 39.5557Z" fill="#FDCE4B"/>
<path d="M25.5348 12.1552C18.6748 12.1552 13.0958 17.7319 13.0928 24.5869C13.092 26.936 13.7497 29.2236 14.9944 31.2031L15.29 31.6734L14.0335 36.2614L18.7404 35.0269L19.1948 35.2962C21.104 36.4292 23.2929 37.0285 25.5245 37.0293H25.5295C32.3841 37.0293 37.9631 31.4522 37.9661 24.5968C37.9673 21.2746 36.6749 18.1511 34.3269 15.8012C31.979 13.4514 28.8563 12.1563 25.5348 12.1552ZM32.8499 29.932C32.5382 30.8048 31.0447 31.6017 30.3264 31.7093C29.6821 31.8054 28.8673 31.8455 27.9716 31.5613C27.4284 31.3889 26.7322 31.1588 25.84 30.7739C22.0897 29.155 19.6403 25.3799 19.4534 25.1305C19.2665 24.881 17.9268 23.1037 17.9268 21.2639C17.9268 19.4244 18.8926 18.52 19.2352 18.1461C19.5781 17.7719 19.9833 17.6785 20.2324 17.6785C20.4815 17.6785 20.7309 17.6807 20.9488 17.6914C21.1784 17.7029 21.4866 17.6041 21.7899 18.3331C22.1016 19.0815 22.8492 20.9209 22.9427 21.1079C23.0362 21.2952 23.0983 21.5134 22.974 21.7628C22.8492 22.0123 22.435 22.5506 22.0394 23.0412C21.8734 23.2468 21.6572 23.4299 21.8754 23.8041C22.0932 24.1779 22.8439 25.4021 23.9551 26.3931C25.3834 27.6665 26.588 28.0609 26.9619 28.2482C27.3353 28.4351 27.5535 28.4039 27.7717 28.1548C27.9896 27.9053 28.7063 27.0634 28.9554 26.6891C29.2045 26.3149 29.454 26.3775 29.7966 26.5022C30.1395 26.6266 31.9774 27.5311 32.3513 27.718C32.7251 27.9053 32.9742 27.9987 33.0677 28.1548C33.1615 28.3108 33.1615 29.0588 32.8499 29.932Z" fill="#FDCE4B"/>
</svg>
